<svg width="26" height="27" viewBox="0 0 26 27" fill="none" xmlns="http://www.w3.org/2000/svg">
<g clip-path="url(#clip0_25_366)">
<path d="M23.2692 12.647L16.9512 24.1424C16.7374 24.5258 16.3378 24.7411 15.9418 24.6546L1.52012 21.4729C1.48407 21.465 1.44932 21.4546 1.4159 21.4419L1.42022 21.4437L1.39431 21.4326C1.37129 21.4239 1.34884 21.4136 1.32709 21.4017L1.30024 21.3877C1.27846 21.3757 1.25706 21.3621 1.2349 21.3482L1.21031 21.3312C1.18928 21.3158 1.16919 21.2997 1.14742 21.2806L1.12827 21.2638C1.10239 21.2402 1.07805 21.2145 1.05544 21.1869L1.05788 21.1901C1.03474 21.1629 1.01324 21.1339 0.993513 21.1034L0.994827 21.1046L0.978504 21.0786L0.940228 21.0129L0.923345 20.9787C0.912087 20.9558 0.902068 20.9321 0.893335 20.9077L0.88452 20.8869L0.880772 20.8753C0.86977 20.8443 0.860274 20.8123 0.85228 20.7795L0.849093 20.769C0.840386 20.7339 0.83382 20.6981 0.829435 20.6617L0.828687 20.6544L0.827007 20.637C0.82302 20.6051 0.820659 20.573 0.819927 20.5406C0.822186 20.5303 0.81919 20.5189 0.820136 20.5075C0.819777 20.4806 0.820918 20.454 0.822814 20.4239C0.825639 20.4111 0.824707 20.3975 0.826031 20.3844L0.836029 20.3105C0.839799 20.2863 0.842432 20.2815 0.845634 20.2669L4.91692 1.81299C4.97662 1.54235 5.12815 1.30351 5.3384 1.14862C5.54866 0.993741 5.80054 0.93541 6.03905 0.986373L13.2503 2.5773C13.4893 2.63004 13.6948 2.78854 13.8215 3.01794C13.9481 3.24733 13.9856 3.52882 13.9257 3.80049L13.6997 4.8248L20.0095 6.21687C20.2486 6.26961 20.454 6.42811 20.5807 6.6575C20.7074 6.88689 20.7448 7.16838 20.6849 7.44005L20.007 10.513L22.7112 11.1096C22.8543 11.1414 22.9868 11.2114 23.0977 11.314C23.2086 11.4165 23.2947 11.5486 23.3488 11.6993C23.4029 11.85 23.4236 12.015 23.409 12.1806C23.3945 12.3462 23.3451 12.5076 23.2651 12.6515L23.2688 12.6452L23.2692 12.647ZM6.48923 3.23404L4.04051 14.3334L7.28062 8.43757C7.38554 8.24696 7.53941 8.09499 7.72053 8.00308C7.90164 7.91118 8.10086 7.88399 8.29006 7.92536L18.2047 10.1127L18.6561 8.06664L12.3463 6.67458C12.1073 6.62183 11.9018 6.46333 11.7751 6.23394C11.6485 6.00455 11.611 5.72306 11.6709 5.45139L11.8967 4.42793L6.48923 3.23404ZM21.0085 12.8823L8.48654 10.1197L3.22203 19.7L15.744 22.4626L21.0085 12.8823Z" fill="black"/>
</g>
<defs>
<clipPath id="clip0_25_366">
<rect width="20" height="22.7273" fill="white" transform="matrix(-0.976517 -0.215438 -0.215438 0.976517 25.1567 4.30884)"/>
</clipPath>
</defs>
</svg>
