<svg width="30" height="30" viewBox="0 0 30 30" fill="none" xmlns="http://www.w3.org/2000/svg">
<path d="M12.8859 4.60801C11.5687 3.29082 9.43124 3.29082 8.11405 4.60801L1.6078 11.1143C0.290614 12.4314 0.290614 14.5689 1.6078 15.8861L8.11405 22.3924C9.43124 23.7096 11.5687 23.7096 12.8859 22.3924L19.3922 15.8861C20.7094 14.5689 20.7094 12.4314 19.3922 11.1143L12.8859 4.60801ZM9.37499 13.5002C9.37499 13.2018 9.49352 12.9157 9.70449 12.7047C9.91547 12.4937 10.2016 12.3752 10.5 12.3752C10.7984 12.3752 11.0845 12.4937 11.2955 12.7047C11.5065 12.9157 11.625 13.2018 11.625 13.5002C11.625 13.7986 11.5065 14.0847 11.2955 14.2957C11.0845 14.5067 10.7984 14.6252 10.5 14.6252C10.2016 14.6252 9.91547 14.5067 9.70449 14.2957C9.49352 14.0847 9.37499 13.7986 9.37499 13.5002ZM4.49999 12.3752C4.79836 12.3752 5.08451 12.4937 5.29548 12.7047C5.50646 12.9157 5.62499 13.2018 5.62499 13.5002C5.62499 13.7986 5.50646 14.0847 5.29548 14.2957C5.08451 14.5067 4.79836 14.6252 4.49999 14.6252C4.20162 14.6252 3.91547 14.5067 3.70449 14.2957C3.49352 14.0847 3.37499 13.7986 3.37499 13.5002C3.37499 13.2018 3.49352 12.9157 3.70449 12.7047C3.91547 12.4937 4.20162 12.3752 4.49999 12.3752ZM10.5 20.6252C10.2016 20.6252 9.91547 20.5067 9.70449 20.2957C9.49352 20.0847 9.37499 19.7986 9.37499 19.5002C9.37499 19.2018 9.49352 18.9157 9.70449 18.7047C9.91547 18.4937 10.2016 18.3752 10.5 18.3752C10.7984 18.3752 11.0845 18.4937 11.2955 18.7047C11.5065 18.9157 11.625 19.2018 11.625 19.5002C11.625 19.7986 11.5065 20.0847 11.2955 20.2957C11.0845 20.5067 10.7984 20.6252 10.5 20.6252ZM16.5 12.3752C16.7984 12.3752 17.0845 12.4937 17.2955 12.7047C17.5065 12.9157 17.625 13.2018 17.625 13.5002C17.625 13.7986 17.5065 14.0847 17.2955 14.2957C17.0845 14.5067 16.7984 14.6252 16.5 14.6252C16.2016 14.6252 15.9155 14.5067 15.7045 14.2957C15.4935 14.0847 15.375 13.7986 15.375 13.5002C15.375 13.2018 15.4935 12.9157 15.7045 12.7047C15.9155 12.4937 16.2016 12.3752 16.5 12.3752ZM10.5 8.6252C10.2016 8.6252 9.91547 8.50667 9.70449 8.29569C9.49352 8.08471 9.37499 7.79856 9.37499 7.5002C9.37499 7.20183 9.49352 6.91568 9.70449 6.7047C9.91547 6.49372 10.2016 6.3752 10.5 6.3752C10.7984 6.3752 11.0845 6.49372 11.2955 6.7047C11.5065 6.91568 11.625 7.20183 11.625 7.5002C11.625 7.79856 11.5065 8.08471 11.2955 8.29569C11.0845 8.50667 10.7984 8.6252 10.5 8.6252ZM15 24.0002C15 25.6549 16.3453 27.0002 18 27.0002H27C28.6547 27.0002 30 25.6549 30 24.0002V15.0002C30 13.3455 28.6547 12.0002 27 12.0002H21.6422C22.1859 13.6877 21.7875 15.6096 20.4515 16.9455L15 22.3971V24.0002ZM22.5 18.3752C22.7984 18.3752 23.0845 18.4937 23.2955 18.7047C23.5065 18.9157 23.625 19.2018 23.625 19.5002C23.625 19.7986 23.5065 20.0847 23.2955 20.2957C23.0845 20.5067 22.7984 20.6252 22.5 20.6252C22.2016 20.6252 21.9155 20.5067 21.7045 20.2957C21.4935 20.0847 21.375 19.7986 21.375 19.5002C21.375 19.2018 21.4935 18.9157 21.7045 18.7047C21.9155 18.4937 22.2016 18.3752 22.5 18.3752Z" fill="white"/>
</svg>
